<?xml version="1.0" encoding="utf-8"?>
<!-- Generator: Adobe Illustrator 22.0.1, SVG Export Plug-In . SVG Version: 6.00 Build 0)  -->
<svg version="1.1" xmlns="http://www.w3.org/2000/svg" x="0px" y="0px"
     viewBox="0 0 297.6 297.6" style="enable-background:new 0 0 297.6 297.6;" xml:space="preserve">
<style type="text/css">
	.st0{fill:none;}
	.st1{fill:#009FDF;}
	.st2{fill:#F18F1F;}
	.st3{display:none;}
</style>
<g id="Seitenformat">
	<rect class="st0" width="297.6" height="297.6"/>
</g>
<g id="Artwork">
	<g>
		<path class="st1" d="M148.8,7.1C70.5,7.1,7.1,70.5,7.1,148.8c0,78.3,63.5,141.7,141.7,141.7c78.3,0,141.7-63.5,141.7-141.7
			C290.6,70.5,227.1,7.1,148.8,7.1z M148.8,284.2c-74.8,0-135.4-60.6-135.4-135.4S74.1,13.5,148.8,13.5
			c74.8,0,135.4,60.6,135.4,135.4S223.6,284.2,148.8,284.2z"/>
		<path class="st1" d="M222.8,190.8c-5.4,0-10.3,2-14.1,5.3L193,182.7c-1.3-1.1-3.3-1-4.5,0.4c-1.1,1.3-1,3.3,0.4,4.5l15.5,13.2
			c-2.3,3.5-3.7,7.8-3.6,12.3c0.1,12.2,10.1,22.1,22.4,22c12.2-0.1,22.1-10.1,22-22.4C245,200.5,235,190.7,222.8,190.8z"/>
		<path class="st1" d="M145.6,90.1v22.1c0,1.8,1.4,3.2,3.2,3.2c1.8,0,3.2-1.4,3.2-3.2V90.1c15.6-1.6,27.8-14.8,27.8-30.8
			c0-17.1-13.9-31-31-31s-31,13.9-31,31C117.9,75.3,130,88.5,145.6,90.1z"/>
		<path class="st1" d="M191.2,115.9c0.7,0,1.5-0.3,2.1-0.8l26.3-22.5c2.2,1.7,5,2.6,7.9,2.5c7-0.2,12.5-6,12.3-13
			c-0.2-7-6-12.5-13-12.3c-7,0.2-12.5,6-12.3,13c0,1.7,0.4,3.4,1.1,4.8l-26.5,22.6c-1.3,1.1-1.5,3.1-0.4,4.5
			C189.4,115.5,190.3,115.9,191.2,115.9z"/>
		<polygon class="st1" points="217.8,173.6 217.8,154.1 230.4,124 217.9,124 212.2,142.4 212.1,142.4 206.5,124 193.6,124 
			206.2,154.1 206.2,173.6 		"/>
		<path class="st1" d="M186.3,151.8c-1-1.8-2.4-3.2-4-4.3c-1.6-1.1-3.3-2-5.1-2.6c-1.8-0.7-3.5-1.4-5.1-2.1c-1.6-0.7-2.9-1.5-4-2.5
			c-1-1-1.6-2.3-1.6-4.1c0-3.6,1.6-5.4,4.7-5.4c1.7,0,2.9,0.6,3.5,1.7c0.6,1.1,1,2.8,1,5.2h11.3v-1.2c0-1.9-0.3-3.7-0.8-5.3
			c-0.6-1.6-1.5-3.1-2.7-4.3c-1.3-1.2-2.9-2.2-4.9-2.9c-2-0.7-4.5-1-7.4-1c-3,0-5.6,0.4-7.6,1.2c-2.1,0.8-3.7,1.8-5,3.2
			c-1.3,1.3-2.2,2.9-2.8,4.6c-0.6,1.8-0.8,3.6-0.8,5.6c0,3.1,0.5,5.6,1.6,7.4c1,1.9,2.4,3.3,4,4.5c1.6,1.1,3.3,2,5.1,2.7
			c1.8,0.6,3.5,1.3,5.1,2s2.9,1.5,4,2.5c1,1,1.6,2.4,1.6,4.1c0,0.7-0.1,1.4-0.2,2.1c-0.2,0.7-0.5,1.4-0.9,1.9c-0.4,0.6-1,1-1.6,1.4
			c-0.7,0.3-1.5,0.5-2.5,0.5c-2,0-3.4-0.6-4.1-1.9c-0.7-1.3-1-2.8-1-4.7v-1.7h-11.3v3.2c0,2.6,0.5,4.7,1.4,6.4s2.1,3,3.6,4
			c1.5,1,3.2,1.6,5.2,2c2,0.4,4,0.6,6.2,0.6c2.7,0,5.1-0.3,7.2-0.9c2.1-0.6,3.9-1.5,5.3-2.8c1.5-1.3,2.6-2.9,3.3-4.9
			c0.8-2,1.1-4.4,1.1-7.2C187.8,155.9,187.3,153.5,186.3,151.8z"/>
		<polygon class="st1" points="144.1,164.2 126.3,164.2 126.3,152.8 142.3,152.8 142.3,143.4 126.3,143.4 126.3,133.4 143.4,133.4 
			143.4,124 114.6,124 114.6,173.6 144.1,173.6 		"/>
		<path class="st1" d="M92.7,125.2c-2.1-0.8-4.6-1.2-7.4-1.2H68v49.6h16.1c3.8,0,6.9-0.5,9.2-1.6c2.3-1.1,4.1-2.7,5.4-4.9
			c1.3-2.2,2.1-4.9,2.5-8.2c0.4-3.3,0.6-7.2,0.6-11.7c0-4.3-0.3-7.9-0.9-10.9c-0.6-3-1.6-5.4-3-7.2C96.5,127.3,94.8,126,92.7,125.2z
			 M89.7,156.9c-0.3,2.2-0.7,4-1.3,5.2c-0.6,1.2-1.3,2-2.3,2.4c-0.9,0.4-2.1,0.6-3.4,0.6h-3.1v-32.4h3.3c1.5,0,2.8,0.2,3.7,0.7
			c0.9,0.5,1.7,1.3,2.2,2.4c0.5,1.2,0.8,2.7,1,4.7c0.2,2,0.2,4.5,0.2,7.5C90.1,151.7,90,154.7,89.7,156.9z"/>
		<path class="st1" d="M74.6,107.1c5.4,0,10.3-2,14.1-5.3l15.6,13.3c1.3,1.1,3.3,1,4.5-0.4c1.1-1.3,1-3.3-0.4-4.5L92.9,97.1
			c2.3-3.5,3.7-7.8,3.6-12.3c-0.1-12.2-10.1-22.1-22.4-22s-22.1,10.1-22,22.4C52.3,97.4,62.3,107.2,74.6,107.1z"/>
		<path class="st1" d="M106.7,182c-0.7,0-1.5,0.3-2.1,0.8l-26.3,22.5c-2.2-1.7-5-2.6-7.9-2.5c-7,0.2-12.5,6-12.3,13
			c0.2,7,6,12.5,13,12.3c7-0.2,12.5-6,12.3-13c0-1.7-0.4-3.4-1.1-4.8l26.5-22.6c1.3-1.1,1.5-3.1,0.4-4.5
			C108.4,182.4,107.6,182,106.7,182z"/>
		<path class="st1" d="M152,207.5v-22.1c0-1.8-1.4-3.2-3.2-3.2c-1.8,0-3.2,1.4-3.2,3.2v22.1c-15.6,1.6-27.8,14.8-27.8,30.8
			c0,17.1,13.9,31,31,31s31-13.9,31-31C179.8,222.3,167.6,209.1,152,207.5z"/>
	</g>
	<path class="st2" d="M232.6,172.5c1.2,1.2,2.6,1.8,4.3,1.8c1.7,0,3.1-0.6,4.3-1.8c1.2-1.2,1.8-2.6,1.8-4.3c0-1.7-0.6-3.1-1.8-4.3
		c-1.2-1.2-2.6-1.8-4.3-1.8c-1.7,0-3.1,0.6-4.3,1.8c-1.2,1.2-1.8,2.6-1.8,4.3C230.8,169.9,231.4,171.4,232.6,172.5"/>
</g>
<g id="Ruler" class="st3">
</g>
</svg>
